/* XPM */
static char * my_wall_xpm[] = {
"64 64 4 1",
" 	c #95421A",
".	c #000000",
"+	c #928383",
"@	c #514747",
"               .+                                   +.          ",
"              .+                                    @.          ",
"              .+                              +   ++.           ",
"             .+    @+                        ++@  +..           ",
"             .@    @+                        +@   +.+           ",
"             .@     @+                           +.++ ++        ",
"             .@      @+                          +.+  @+        ",
"             .@                             ++   ..    @+       ",
"             .+         +                   +@  @.              ",
"             .@                                 @.+             ",
"            ..+                                @+.+      ++     ",
"++        ++.+                            +    @.++       @+    ",
"..++      +..+                                 +.+              ",
"+ ..........+@     @                        +++..+           +++",
"  ++++++++@+........@@+++++@@               +...@@@   ++++++... ",
"           @++++++@.........@@++++++      ......+@..........   .",
"                   ++@.@  @@..............     ....+@@+.@@@     ",
"   ++@               @.@    @                     ++ @@.@       ",
"    @+               +.@                              +..       ",
"     @               +.                               ++.+      ",
"      @ +            .                                @@.+      ",
"       @++          ..                                +@.+      ",
"                   +.            +++@                ++.++ @    ",
"                   +.              ++@@              +.++  @    ",
"                   +.               +++@             ..    +@   ",
"                   ..                  +             .+    +@   ",
"                  ..                                +.+     ++  ",
"...              +.@                                +.+      +  ",
"  .......    @@@ +.@                                +.+         ",
"   .+@@@.......@@..@@++                             ..          ",
"  .++      ++++.......+ +++++                   +++..@          ",
" +.+          +++    ........  ++@@           @+++..@@@         ",
" .                       +  .......@+++++++  @.......@@++++   + ",
"+.                              ...............@@@ +........ +.+",
" .                              .@                 ++++@@.@....+",
" .+                          @@.@@                      @.@@@ ++",
"..+      @                   @.                         @.      ",
".+    ++++@@                 @.                         +.      ",
"++        ++@                @.       +@                +.      ",
"+          +@+               @.      +@                 @.      ",
"             +               @.      +@                 @.@     ",
"   +++                       .       +@                +..@     ",
".....++++  +++               .      +@                +..@@     ",
"@@@ +........+ ++++        @@.@                      @.         ",
"    ++++@@@  ....... ++    @..@                      +.         ",
"               @@.@....+@@@@.@                       +.         ",
"                @.@@@ .....@.+++@@@+                ++.@        ",
"                @.@        ........++++@@ ++++      +..@@  ++   ",
"               ++.                 .........+++@@@@++.@@....+++ ",
"              ++..                         ..............@@+....",
"              ++.                              ..@@  +++@@  ++++",
"+@            +..                             ..@@@             ",
"@+@           +.                        ++    .@@  @++          ",
"@+++++       +..                        +@    .+    @++         ",
"      @      +.                        ++@    .+                ",
"     @       +.  @+                   +@      .+           +    ",
"+++@@@++++  @@.   @++                 @       .+                ",
".........+ @@..    @@+               +@      .++                ",
"@@++    +.....                               .+                 ",
"        +++@@....                           ..                  ",
"           @+++++....                       .                   ",
"                ++.@....  +++++             .                   ",
"    +            .@@@  .......++   ++++     .+                  ",
"    @+           .@         @...........++@@.+                  "};
