/* XPM */
static char * wooden_box_xpm[] = {
"64 64 11 1",
" 	c #5E3411",
".	c #6E3C12",
"+	c #542E0F",
"@	c #878383",
"#	c #5B4D4D",
"$	c #794214",
"%	c #8F4F1B",
"&	c #B57815",
"*	c #8E4E1A",
"=	c #9E5921",
"-	c #804617",
"   ..........................................................++ ",
" @# ........................................................+$$ ",
" ##$                                                        $@# ",
" $$$$                                                      +$##+",
"% $$$ && &&&&&&&&&&&&&&&&&&&&&&&&&&&   &&&&&&& &&&&&&&&&&&+$$$+.",
"% $$$$   &&&&&&&& &&  &&&&&&&&&&&&&&&  &&&&&&&  &&&&&&&&++$$$$+.",
"%% $$$$$ &&&&&&  &&&&& &&&&&&&&&&&&&&& &&&&&&&& &&&&&&&+$$$$$+..",
"%%   $$$$ &&&  &&&&&&&&  &&&&&&&&&&&&& &&&&&&&&& &&&&&+$$$$++*..",
"%% && $$$ && &&&&&&&&&&&&  &&&&&&&&&&& &&&&&&&&&  &&&&+$$$+ **..",
"%% &&& $$$ &&&&&&&&&&&&&&&& &&&&&&&&&&  &&&&&&&&&&&&&+$$$+& **..",
"%% &&& $$$$  &&&&&&&&&&&&&&&&&&&&&&&&&    &&&&&&&&&++$$$$+& **..",
"%%      $$$$$                                     +$$$$$+   **..",
"%% &&&&&  $$$$ && &&&&&&&&&&&&&&&&&&&&&&&&&&&&&  +$$$$++&&  **..",
"%% &&&&&&& $$$ && &&&& &&&&&&&&&&&&&&&  & &&&&&& +$$$+&&&&& **..",
"%% &&&&&&&& $$$ & &&&&&  &&&&&&&&&&&&&&  &&&&&&&+$$$+&&&&&& **..",
"%% & &&&&&& $$$$  &&&&&&&   &&&&&&&&&&&&&&&&&&++$$$$+&&&&&& **..",
"%% && &&&&&& $$$$$ &&&&&&&&&&&&& &&&&&&&&&&&&+$$$$$+&&&&  & **..",
"%% &&&  &&&&&  $$$$ &&&&&&&&&&&&&  &&&&&&&&&+$$$$++&&&&&&   **..",
"%%  &&&&&&&&&&& $$$ &&&&&&&&&&&&&&&  &&&&&&&+$$$+ &&&&&&&&& **..",
"%%               $$$                       +$$$+            **..",
"%% &&&&&&&&&&&&& $$$$  &&&&   &&&&&&&&&&&++$$$$+&&&&&&& &&& **..",
"%% &&&&&& &&&&&&& $$$$$ &&&&  &&&&&&&&&&+$$$$$+&&&&&&&  &&& **..",
"%% &&&&&&  &&&&&&&  $$$$ &&&& &&&&  &&&+$$$$++&&&&&&  &&&&& **..",
"%% &&&&&&&& &&&&&&&& $$$ &&&& &&&&&& &&+$$$+&&&&&&& &&&&&&& **..",
"%% &&&&&&&&& &&&&&&&& $$$ &&& &&&&&&&&+$$$+&&&&&&  &&&&&&&& **..",
"%%  &&&&&&&&&&&&&&&   $$$$  &  &&&&&++$$$$+&&&&&&&&&&&&&&&& **..",
"%%   &&&&&&&&&&&&& &&& $$$$$    &&&+$$$$$+&&&&&&&&&&&&&&&&& **..",
"%%                       $$$$     +$$$$++                   **..",
"%% &&&&& &&&&&&&&&&&&&&&& $$$ &&&&+$$$+&&&&&&&&&&&&&&&&&&&& **..",
"%% &&&&& &&&&&&&&&&&&&&&&& $$$ &&+$$$+ &&&&&&&&&&&&&&&&&&&& **..",
"%% &&&&& &&&&&&&  &&&&&&&& $$$$++$$$$+ &&&&&&   &&&&&&&&&&& **..",
"%% &&&&& &&&&&& &&&&&&&&&&& $$+$$$$$+& &&&&&&&&& &&&&&&&&&& **..",
"%% &&&&& &&&&&& &&&&&  &&&&& +$@#$++&& &&&&&&&&&&    &&&    **..",
"%% &&&&&  &&&&& &&&&&&& &&&&&+$##+ &&&  &&&&&&&&&&&&&&& &&& **..",
"%% &&&&&   &&& &&&&&&&&& &&&+$$$+$$ &&   &&&&&&&&&&&&&&&&&& **..",
"%%                        ++$$$$+$$$                        **..",
"%% &&&&&&&&&&&&   &&&&&&&+$$$$$+ $$$$$ &&&&&&&&   &&&&&&&&& **..",
"%% &&&&&&&&&&&&&  &&&&&&+$$$$++&&  $$$$ &&&&&&&&  &&&&&&& & **..",
"%% &&& &&&&&&&&&& &&&&&&+$$$+&&&&&& $$$ &&&&&&&&& &&&&   && **..",
"%% &&&& &&&& &&&& &&&&&+$$$+&&&&&&&& $$$ &&&&&&&& &&& &&&&& **..",
"%% &&&&& && &&&&& &&&++$$$$+&&&&&&&& $$$$  &&&&&& &&&&&&&&& **..",
"%% &&&&&&  &&&&&& &&+$$$$$+&&&&&&&&&& $$$$$ &&&&&  &&&&&&&& **..",
"%% &&&&&&&&  &&&& &+$$$$++&&&&&&&&&&&&  $$$$ &&&&   &&&&&&& **..",
"%%                 +$$$+                 $$$                **..",
"%% &&&&&&&&&&&&&&&+$$$+&&&&&& &&&&&&&&&&& $$$ &&&&&&&&&&&&& **..",
"%% &&&&&& &&&&&&++$$$$+&&&&&& &&&&&&&&&&& $$$$  &&&&&&&&&&& **..",
"%% &&&&  &&&&&&+$$$$$+& &&&&& &&&&&&&&&&&& $$$$$ &&&&&&&&&& **..",
"%% &&&&&&  &&&+$$$$++&& &&&&& &&&&   &&&&&&  $$$$ &&&&  &&& **..",
"%% &&&&&&&&&&&+$$$+&&&&&  &&& &&&&&&& &&& &&& $$$ &&&&&& && **..",
"%%  &&&&&&&&&+$$$+&&&&&&&&  &  &&&&&&&   &&&&& $$$ &&&&& && **..",
"%%   &&&&&&++$$$$+&&&&&&&&&&&   &&&&&&&&&&&&&& $$$$  &&&& & **..",
"%%        +$$$$$+                               $$$$$       **..",
"%% &&&&& +$$$$++&&&&&&&&&&&&&&&&&&&&   &&&&&&&&&  $$$$ &&&& **..",
"%% &&&&& +$$$+&&&&&&&   &&&&&&&&&&&&&  &&&&&&&&&&& $$$ &&&& **..",
"%% &&&&&+$$$+&&&&&&&&&&& &&&&&&&&&&&&& &&&&&&&&&&&& $$$ &&& **..",
"%% &&&++$$$$+&&&&&&&&&&&&  &&&&&&&&& & &&&&&& &&&&& $$$$  & **..",
"%% &&+$$$$$+&&&&&&&&&&&&&&& &&&&&&&&&  &&&&& &&&&&&& $$$$$  **..",
"%% &+$$$$++&&&&&&&&&&&&&&&&& &&&&&&&&&  &&& &&&&&&&&&  $$$$ **..",
"%% &+$$$+   &&&&&&&&&&&&&&&&&&&&&&&&&&   && &&&&&&&&&&& $$$ **..",
"%% +$$$+                                                 $$$ *..",
"%++$$$$+================================================ $$$$  .",
"+@#$$$+================================================== $$@#$ ",
" ##$++----------------------------------------------------  ##$ ",
"    --------------------------------------------------------    "};
